<?xml version="1.0" encoding="utf-8"?><!-- Generator: Adobe Illustrator 16.0.0, SVG Export Plug-In . SVG Version: 6.00 Build 0) --><!DOCTYPE svg PUBLIC "-//W3C//DTD SVG 1.1//EN" "http://www.w3.org/Graphics/SVG/1.1/DTD/svg11.dtd"><svg version="1.1" id="Layer_1" xmlns="http://www.w3.org/2000/svg" xmlns:xlink="http://www.w3.org/1999/xlink" x="0px" y="0px" width="90px" height="115px" viewBox="0 0 90 115" enable-background="new 0 0 90 115" xml:space="preserve"><g id="wordmark"><path fill="#FFFFFF" d="M90,66.7V2.86c-51.29-4.95-90,0-90,0S0,66.7,0,66.71c4.09,43.28,44.62,48.36,45,48.29C52.25,113.69,86.23,106.86,90,66.7L90,66.7z M87.76,66.34c-3.59,38.55-35.86,45.11-42.73,46.37c-0.36,0.06-38.86-4.82-42.74-46.36c0-0.01,0-61.3,0-61.3s36.76-4.75,85.47,0V66.34L87.76,66.34z M74.69,89.04c1.44-2.06,2.26-4.28,2.75-6.66c-0.84,1.09-2.07,2.05-3.3,2.53C73.27,87.66,73.68,90.5,74.69,89.04L74.69,89.04z M76.07,82.86c1.03-0.87,1.62-2.34,2.94-2.78c-1-0.92-1.98,0.91-2.49,0.28c0.92-1.45,1.5-2.56,1.6-4.37c0.05-0.98,1.19-1.89,1.45-2.43c-1.09,0.16-4.01,1.88-4.6,2.87c-1.96,2.59-1.86,5.02-10.06,8.65c-0.41,0,1.52-1.4,2.07-3.02c0.26-0.76,1.33-4.27,0.59-5.97c-1.7,1.72-1.35,2.28-1.83,3.55c-1.22,3.36-1.89,3.68-4.95,5.74c-0.41,0.28-2.75,3.9-5.8,4.07c0.31-0.08,0.13-0.84,1.16-1.51c3.41-2.23,2.11-7.05,6.56-7.86c-2.22-0.79-3.74,1.37-4.14,1.15c1.79-2.49,0.22-4.59,0.48-6.62c-0.6,0.32-1.2,1.05-1.25,1.65c-0.33,3.61-2.02,4.24-2.19,5.8c0.36,2.58-1.71,4.58-3.23,6.39c-0.29-1.5,0.1-2.84,1.99-4.08c1.04-0.68-0.1-2.74-0.1-2.74c-0.42,2.25-1.69,2.94-2.48,3.05c-0.69,0.1,2.41-3.15,2.05-6.11c-0.16-1.32-0.54-0.73-0.75-2.22c-2.67,2.97-0.72,4.82-3.46,8.24c-1.3,1.62-1.79,4.48-1.96,4.55c0.03-4.25,0.17-3.01,2.05-6.46c1.55-2.84-0.08-5.49-0.3-7.2c-3.4,2.34-3.12,6.86-3.21,5.88c-0.09-0.96-0.51-2.66-0.05-4.19c0.76-2.55-0.85-6.43-0.85-6.43c-4.76,7.47-0.77,16.2-1.07,16.09c-2.07-3.24-3.57-3.37-4.02-5.85c-0.24-1.35-2.7-8.74-7.2-8.87c2.27,1.96,1.72,2.23,1.87,5.43c-1.45,8.02,9.78,8.86,9.03,13.02c-1.54-2.46-3.89-3.51-7.42-5.43c-1.57-1.24-3.33-1.79-3.43-3.74c0.19-1.41,0.27-1.12,0.02-2.95c-0.17-1.31-1.46-0.52-2.41-3.25c-2.03,1.83-1.28,3.91-1.12,5.09c0.05,0.34,0.28,1.58-0.03,2.31c-0.72-0.5-1.22-1.52-2.02-2.55c-1.46-1.86-1.44-4.12-2.17-5.69c-0.34-0.73-0.82-1.72-1.1-1.73l-0.05,0.03c-0.35,2.92-0.18,5.46,1.14,7.65c0,0-0.36,0.62-0.66,0.79c-1.26-0.33-3.04-1.39-3.77-3.44c-1.56,1.31-0.45,3.01-0.53,2.98c-3.51-1.79,0.04-8.78-4.96-8.57c1.23,1.34,0.45,3.07,0.35,4.68c-0.03,2.62,3.3,4.65,3.3,4.65c-3.7-1.25-4.47,0.49-4.42,0.49c0,0,5.46,2.37,14.08,3.27c1.11,0.12,2.69,1.42,2.43,1.42c-1.1-0.08-3.3-1.51-6.46,1.3c1.86,0.05,3.14,3.08,6.16,1.34c7.8-2.21,10.69,1.66,11.96,2.66c-0.27,0.49-5.99-3.6-10.54-0.89c-2.42,1.44-6.29,0.13-9.33-2.14c1.23,3.14,6.45,6.66,8.18,6.67c2.12,0,4.83-2.76,7.9-2.61c4.92,0.24,5.61,4.64,5.06,4.3c0,0-3.87-6.41-8.85,0.44c2.32-1.07,5.44-0.8,8.16,0.5c0.37,0.17-0.67,1.32-1.4,2.16c-0.48,0.54-2.55,3.61-4.8,0.59c-0.34-0.45-1.4-3.26-8.43-2.66c2.65,1.19,5.58,4.33,7.02,5.76c3.68,3.64,9.24-4.42,9.45-3.52c0,1.81,0.93,2.69,1.42,3.67c1.23,2.47-1.56,2.05-3.08,1.42c0,0,2.9,4.52,5.33,2c2.69-2.79-3.52-4.89-1.55-7.11c1.11-1.25,5.02,2.79,6.78,2.8c4.77,0.53,4.52-4,7.04-3.87c-2.37-2.4-4.89-1.1-5.42-0.48c-1.59,1.85-3.43,0.61-4.71-0.39c-0.7-0.92-1.87-1.06-2.91-0.78c-0.5,0.04,1-1.75,2.95-1.37c4.39,0.85,8.79-0.73,9.87-1.33c1.77-0.99,2.76-2.67,4.73-4.55c-0.62,0.12-4.27,2.15-5.44,2.74c-3.52,1.77-5.72-0.53-6.11-0.52c-0.68,0.02-0.5-0.51,0.56-0.85c3.61-0.8,6.1-3.99,9.54-5.24C68.04,84.88,72.85,86.03,76.07,82.86L76.07,82.86z M68.9,78.09c-0.11,0.75-0.11,1.34-0.35,2.19c-0.02,0.08,0.84,0.43,1.24,0.77c0.55-0.52,1.05-0.78,1.63-1.51c-0.13-0.08-2.44-2.1-2.45-2.01C68.96,77.81,68.95,77.77,68.9,78.09L68.9,78.09z M69.26,81.54c0,0-0.89-0.67-0.94-0.54c-0.15,0.39-0.34,0.83-0.6,1.35C67.49,82.81,68.19,82.47,69.26,81.54L69.26,81.54z M79.74,72.44c-0.22-8.28-5.3-17.46-3.91-15.75c3.46,4.27,4.57,13.53,6.94,21.51c0,0,1.52,0.78,1.2-9.34c-0.07-2.05-0.9-4.78-1.92-6.68c-2.01-3.75-6.08-10.09-5.96-10.14c0.98-0.8,3.37,4.67,5.45,6.81c1.35,1.39,5.09,2.75,5.35,2.58c-3-5.82-10.27-11.29-9.51-11.97c5.35,5.01,7.04,5.25,7.26,4.99l-4.82-4.68c-1.36-1.83-3.16-3.23-2.91-3.17c2.15,0.48-1.12-1.79-3.65-2.48c-0.46-0.12-1.18-0.16-1.21-0.39c-0.04-0.39,0.59-0.22,1.12-0.39c0.35-0.1,0.7-0.37,0.71-0.87c-0.97,0.21-1.95-0.01-2.78-0.39c-1.71-0.79-4.76-1.71-6.16-1.16c-0.82,0.32-0.98,0.28-1.86,0.96c-0.39-0.16-1.46-0.85-2.99,0.98c-0.47,0.56-1.04,1.23-1.06,1.71c-0.07,1.23,0.03,0.06,0.33,1.23c0.12,0.49-0.43,1.39-2.67,2.14c-0.87,0.29-0.65,1.15-0.65,1.15c0.43-0.21,1.11-0.69,2.16-0.2c2.05,0.96,2.45-0.56,3.72-1.64c0,0-0.35,1.36-0.01,1.43c1.59,0.33,1.06,1.52,0.86,1.7c-2.01,1.79-1.17,2.47-1.88,3.57c-0.67,1.04-1.72,1.44-3.27,1.39c-2.14-0.07,2.8-3.31-1.93-4.65c0.74,1.24,1.04,2.24-0.61,3.19c-1.04,0.61-0.51,3.68-3.19,2.26c0,0-0.22,2.28-0.53,2.38c3.63,3.18,1.6,4.92,1.79,9.46c1.13,2.89-0.11,4.27-0.4,4.43c0.18,1.96,0.37,3.04,1.59,4.63c0.89,1.16-0.08,2.93,0.83,4.17c0.83-2.95,1.73-1.72,1.97-5.82c0.33-0.69,1.71-1.91,2.5-1.98c-0.01,2.47,0.9,4.72,0.71,5.77c0,0,2.09-0.38,2.73-0.15c0.51,0.17,0.91,0.85,0.92,1.26c-0.71,0.44-0.71,0.27-1.78,1.06c-1.88,1.37-2.74,4.15-2.74,4.15s4.41-3.51,4.72-4.15c0.25-0.5,0.49-1.28,0.72-2.07c0.03-0.09-2.27-1.43-2.9-2.65c-1.97-3.83,3.05,2.27,3.17,1.74c0.3-1.32,1.21-2.57,1.21-2.57c-0.32-0.38-1.11-0.61-2.31-2.73c-2.75-4.84,3.18,2.07,3.18,2.07c1.57-0.9,1.58,0.3,1.78,1.58c0.02,0.12,2.67,2.07,2.8,2.2c0.75-0.69,1.29-1.64,1.6-2.29c0.04-0.09-4.79-4.36-5.61-5.78c-6.65-11.41,5.38,5.06,5.95,4.61c0.32-0.89,0.43-2.12,0.39-3.78c0-0.04-2.26-1.6-3.71-3.99c-5.59-9.23,3.67,2.75,3.67,2.67c-0.11-1.97-1.73-10.55-0.61-7.97c0.57,1.32,2.37,6.8,2.04,12.37C76.18,73.72,78.76,72.69,79.74,72.44L79.74,72.44z M83.38,17.49c0.05,0.33,0.08,0.57,0.1,0.73C83.46,18.06,83.43,17.82,83.38,17.49c0.01,0-0.16-3.08-3.46-3.08c-1.08,0-2.38,1.31-5.73-0.14v5.23c1.35,0.4,5.07-1.72,6.56-2.37C81.8,16.66,83.3,16.97,83.38,17.49L83.38,17.49z M74.09,25.06v5.23c0,0,2.92-0.02,6.17-2.11c0.97-0.63,2.41-0.37,3.12,0.2h0.01c0,0-0.44-3.43-3.34-3C74.71,26.16,74.09,25.06,74.09,25.06L74.09,25.06z M54.14,33.37c2.78,0,13.7,3,18.97,2.64V8.52c0,0-7.75,1.1-14.46-1.38c-5.48-2.02-13.01,1.51-13.01,1.51c0.01,0.94,0,26.95,0,26.95S48.41,33.37,54.14,33.37L54.14,33.37z M48.22,24.32c0.26,0.03,1.05,0.04,1.33,0.04c-0.04,0.59-0.04,4.66,0,5.08s0.4,0.55,0.76,0.38c0.18-0.07,0.35,0.06,0.11,0.25c-0.4,0.3-0.89,1-1.11,1.27c-0.46-0.31-0.96-0.71-0.92-1.09C48.44,29.61,48.24,24.87,48.22,24.32L48.22,24.32z M49.66,18.37c0.8-0.44,2.59-0.71,3.21-0.52c0.31,0.09,0.63,0,0.63-0.14c0-0.21,0.29-0.15,0.29,0c0,0.16-0.01,2.12-0.02,2.3c0,0.19-0.28,0.17-0.28,0c0-0.28,0-0.37-0.25-0.75c-0.72-1.08-2.7-1.17-3.68,0.13c-0.34,0.43-0.46,1.2-0.08,1.32c0.37,0.12,1.78,0.01,2.23-0.07c0.46-0.08,1.59-0.27,1.72-0.36c0.13-0.08,0.3-0.18,0.3,0.04c0,0.23,0,0.98-0.01,1.2c0,0.23-0.18,0.12-0.3,0.03c-0.13-0.08-1.2-0.18-1.66-0.21c-0.77-0.07-1.93-0.31-2.31-0.19c-0.38,0.11-0.08,0.71,0.25,1.15c0.97,1.31,2.77,1.35,3.5,0.28c0.26-0.39,0.26-0.47,0.26-0.74c0-0.17,0.3-0.2,0.3,0c0,0.18-0.02,1.81-0.02,1.96c0,0.16-0.3,0.21-0.3-0.01c0.01-0.34-0.2-0.32-0.6-0.21c-1.05,0.28-2.45,0.38-3.29-0.1c-0.88-0.5-1.65-0.67-1.67-2.61C47.86,19.71,48.95,18.78,49.66,18.37L49.66,18.37z M55.41,10c-0.47,0.14-0.81,0.61-0.92,1.09c-0.09,0.49-1.7,5.15-1.89,5.45c-0.38-1.45-1.99-4.91-2.51-5.65c-0.44-0.65-0.87-0.53-1.27-0.54c-0.39,0-0.24-0.38,0.08-0.35c0.45,0.05,2.99,0.28,3.71,0.38c0.26,0.05,0.26,0.29-0.08,0.39c-0.18,0.05-0.58,0.24-0.58,0.44c0,0.28,0.92,2.3,1.18,2.68c0.22-0.52,1.09-2.74,0.91-3.23c-0.19-0.48-0.26-0.56-0.62-0.6s-0.36-0.26,0.07-0.32c0.44-0.07,1.64-0.17,2-0.13C55.85,9.66,55.9,9.87,55.41,10L55.41,10z M58.14,10.06l-0.48,0.42h-0.39l-0.4-0.39l-0.02-0.77l0.64-0.54l0.64,0.63v0.65H58.14z M59.25,15.44l-0.85,1.1h-0.79c-0.39-0.39-0.65-0.7-0.73-1.02l-0.04-2.65l-0.99-0.56c-0.18,0.25-0.55,0.25-0.4,0.04l1.36-1.19l0.3-0.03L57.97,12l-0.02,2.73C58.38,15.22,58.64,15.34,59.25,15.44L59.25,15.44z M64.04,12.3c-0.2,0-2.26,0.25-2.26,0.25c-0.11,0.05,0.11,2.59,0.18,2.8c0.06,0.21,0.26,0.53,0.49,0.32c0.21-0.21,0.45,0.14,0.2,0.34c-0.14,0.11-0.6,1.01-0.81,1.15c-0.32,0.2-0.79-0.47-0.95-0.88c-0.25-0.69-0.41-2.43-0.41-3.58c0.07,0.02-0.96-0.41-0.49-0.59c0.9-0.39,1.77-1.59,1.88-1.9s0.4-0.18,0.25,0.13c-0.3,0.63-0.27,1.08-0.14,1.45c0.04,0.1,1.78,0.06,2.04,0.06C64.19,11.86,64.18,12.3,64.04,12.3L64.04,12.3z M61.68,21.07c-0.18,0.89,0.59,1.62,1.18,1.92c0.47,0.24,1.28,0.11,1.48,0.08c0.2-0.03,0.14-0.09,0.29-0.22c0.15-0.14,0.32-0.01,0.2,0.12c-0.13,0.14-1.32,1.27-1.65,1.5c-0.3,0.08-0.97,0.06-1.37-0.45c-0.71-0.88-1.22-1.2-1-2.81c0.15-1.09,1.97-2.04,2.39-2.27c0.17,0.16,0.99,1.03,1.36,1.33c-0.14,0.18-0.6,0.39-1.04,0.38c-0.45,0-0.75-0.38-1.05-0.71C62.27,20.14,61.81,20.41,61.68,21.07L61.68,21.07z M68.95,16.73l-1.1,1.2c-0.32-0.23-0.51-0.48-0.61-0.88c-0.84,0.17-1.41,0.67-1.8,0.96c-0.35-0.31-0.87-1.15-0.88-1.73c-0.01-0.58,0.44-1.42,0.75-1.72c0.03,0.01,0.06,0.03,0.09,0.05c-0.18-0.11-0.35-0.22-0.49-0.33c-0.12-0.11-0.16-0.39,0-0.62c0.22-0.29,0.9-1.15,1.57-1.25c0.35-0.05,0.96,0.05,1.78,0.78c-0.11,0.13-0.11,2.53-0.11,2.78C68.46,16.35,68.95,16.73,68.95,16.73L68.95,16.73z M71.2,22.18c-0.36-0.02-0.73-0.08-0.93-0.14c-0.31-0.08-0.18-0.44,0.07-0.44s0.65,0.07,0.84,0.15C71.37,21.82,71.45,22.2,71.2,22.18L71.2,22.18z M71.18,23.03c-0.37-0.02-0.72-0.08-0.92-0.14c-0.31-0.1-0.19-0.44,0.08-0.44c0.25,0,0.64,0.08,0.82,0.15S71.41,23.06,71.18,23.03L71.18,23.03z M65.45,28.1c0.37-0.21,1.23-0.99,1.53-1.2c0.5,0.38,0.82,0.77,1.07,1.04c0.33-0.17,0.85-0.55,1.1-0.75c0.44,0.31,0.93,0.71,1.11,0.93c0.23-0.21,0.52-0.04,0.25,0.22c-0.25,0.24-0.82,0.74-1.04,0.9c-0.32-0.17-0.87-0.8-1.05-0.94c-0.09,0.08-0.28,0.17-0.44,0.26c-0.01,0.35,0,3.2-0.02,3.55c-0.47,0.02-0.85,0.06-1.17-0.01c-0.03-0.45,0.02-2.92,0-3.32C66.76,28.28,65.98,28.11,65.45,28.1L65.45,28.1z M65.27,22.61c0.04-1.42,0.99-2.63,2.51-3.17c1.2,0.4,1.71,1.62,1.75,2.44c0.03,0.67-0.41,1.55-0.71,2.09c-0.47,0.31-0.95,0.77-1.4,1.21C65.95,25.16,65.24,23.44,65.27,22.61L65.27,22.61z M59.61,27.28c0.44-0.49,0.91-0.8,1.18-1.07c0.46,0.35,0.61,0.56,0.87,0.94c-0.01,0.62-0.14,1.94-0.1,2.4c0.02,0.45,1.8,0.75,1.88,0.09c0.08-0.66,0.02-1.5,0-1.89c-0.03-0.3-0.74-0.44-1.09-0.4c0.48-0.5,0.89-0.87,1.19-1.15c0.43,0.32,0.85,0.78,1.1,1.17c-0.01,0.67-0.13,2.23-0.04,2.64c0.12,0.43,0.08,0.46,0.4,0.67c-0.33,0.31-0.58,0.44-0.8,0.68c-0.33-0.1-0.9-0.6-0.86-1.05c-0.41,0.28-1.61,0.78-2.04,0.89c-0.43-0.45-0.77-0.57-0.79-1.12c-0.03-0.56,0.13-2.02-0.05-2.37C60.27,27.39,59.97,27.31,59.61,27.28L59.61,27.28z M58.59,23.27c-0.43-0.25-1.03-0.82-1.35-1.29c-0.58,0.74-0.72,1.38-1.78,1.65c0.61-0.52,1.18-1.65,1.13-2.74c-0.05-0.98-0.58-1.46-1.05-1.64c-0.41,0.19-0.76,0.46-0.97,0.55c-0.22,0.09-0.28-0.26-0.12-0.33c0.52-0.25,1.65-1.12,1.81-1.29c0.48,0.09,1.08,0.5,1.16,0.89c0.36-0.22,1.01-0.93,1.2-1.09c0.22,0.38,0.87,0.86,1.59,1.12c-0.66,1.13-2.13,0.45-2.34,0.18c-0.24,0.39-0.29,0.63-0.06,1.13c0.3,0.67,1.51,1.31,2.13,1.48C59.77,22.09,58.9,23.07,58.59,23.27L58.59,23.27z M56.9,26.7c0.07,0.02-0.94-0.38-0.51-0.6c0.76-0.38,1.51-1.17,1.63-1.49c0.12-0.3,0.41-0.17,0.25,0.14c-0.15,0.31-0.25,1.07-0.17,1.31c0.03,0.1,0.61,0.16,0.87,0.16c0.15,0,0.14,0.46-0.01,0.46c-0.19-0.01-0.91,0.01-0.91,0.01c-0.1,0.05-0.03,2.55,0.03,2.77c0.08,0.21,0.67,0.35,0.89,0.15c0.22-0.2,0.45,0.01,0.18,0.2c-0.13,0.12-0.59,0.83-0.95,0.97c-0.37,0.14-0.93-0.09-1.17-0.46C56.65,29.72,56.88,27.85,56.9,26.7L56.9,26.7z M54.58,30.75c-0.37-0.28-0.69-0.35-0.8-0.79c-0.96,0.37-1.31,0.92-1.89,1.32c-0.34-0.31-0.62-0.87-0.63-1.45c-0.01-0.57,0.55-1.34,0.87-1.63c-0.04-0.04-0.06-0.04-0.11-0.08c-0.12-0.11-0.3-0.94-0.13-1.16c0.21-0.3,1.06-1.47,1.73-1.53c0.46-0.04,0.82,0.53,1.21,0.95c-0.1,0.11-0.05,2.15-0.07,2.4c0.43,0.46,0.6,0.56,0.86,0.39c0.25-0.18,0.36,0,0.18,0.17C55.62,29.51,54.8,30.51,54.58,30.75L54.58,30.75z M53.74,28.26c0-0.43,0-0.86-0.04-1.06c0.04-0.32-0.64-0.78-0.82-0.79c-0.19,0-0.35,0.07-0.59,0.44c-0.12,0.19-0.09,0.97,0.01,1.05C52.87,28.39,53.23,28.33,53.74,28.26L53.74,28.26z M52.59,28.53c-0.51,0.97-0.09,1.17,0.2,1.41c0.36-0.18,0.67-0.34,0.93-0.52c0-0.18,0.01-0.51,0.01-0.87C53.15,28.61,52.97,28.74,52.59,28.53L52.59,28.53z M66.34,22.74c0.24,0.61,1.27,1.41,1.55,1.54c0.43-0.52,0.66-1.47,0.56-2.27c-0.07-0.62-0.87-1.29-1.55-1.54C66.03,21.01,66.03,21.92,66.34,22.74L66.34,22.74z M66.31,17.05c0.36-0.17,0.61-0.25,0.89-0.26c-0.01-0.14-0.03-0.28-0.03-0.46c0-0.14,0.01-0.51,0.02-0.92c-0.48-0.15-1.09-0.41-1.61-0.7c0.08,0.05,0.16,0.09,0.24,0.13C65.25,15.89,66.01,16.81,66.31,17.05L66.31,17.05z M65.19,14.15c0.39,0.32,1.46,0.82,1.99,1.01c0-0.46,0-0.91-0.04-1.13c0.04-0.31-1.05-0.89-1.21-0.89c-0.2-0.01-0.48,0.31-0.73,0.67C65.08,14.02,65.09,14.07,65.19,14.15L65.19,14.15z M44.65,39.06c-0.86,0.1-1.92,0.61-2.18,1.52c-0.53,0.52-0.5-0.87-1.57-0.26c-0.46,0.62,0.73,1.98,0.45,2.07c-1.17,0.35-1.02-1.75-1.69-1.81c-0.96,0.34-3.37,2.55-1,4.29c-0.07-1.18,2.16-2.46,2.9,0.14c2.24-0.17,2.99,1.19,3.27,1.95c3.3,0.59,2.35,2.78,2.26,2.78c-0.31-0.47-1.73-2.66-4.06-1.15c-0.54,0.35-1.47,0.69-1.93,0.23c0.05,0.73,0.97,1.39,1.6,1.22c2.07-0.56,2.59,1.36,1.01,1.88c0.34,0.53,0.99,0.5,1.59,0.13c0.89-0.54,0.99-1.02,1.32-1.35c0.56,2.69-2.85,2.95-3.93,3.11c0.17,0.57,0.53,0.7,1.22,0.9c-3.6,0.12-4.3,3.5-4.09,5.44c0.81,0.06,2.06-1.7,1.95-0.69c-2.55,2.7-3.41,6.32-2.07,8.62c0.64-0.26,0.84-0.96,1.06-1.54c0.1-0.07,1.4,0.52-0.69,3.02c-0.15,0.65-0.88,2.62,0.73,3.09c0.62-0.72,0.53-1.36,0.66-2.1c0.47-0.19,0.78,1.33,0.6,1.79c-2.1,0.87-1.84,7.31,0.59,10.77c-1.13-2.52-0.98-5.75,0-8.32c0.75-1.99,2.4-6.48,2.45-6.42c0.94,1.15,2.12,6.09,2.12,8.13c1.31-1.14,1.57-2.4,2.64-3.24c0.51,1.8,0.72,2.98,1.12,4.56c0.52-1.55,1.9-3.29-0.07-8.3c0.41-0.37,1.15,1.74,1.39,1.64c0.18-0.07,0.45-1.12-0.22-3.08c-1.38-1.29-1.7-3.19-1.48-3.33c0.18-0.11,0.8,1.97,1.54,2.07c0.15-1.62,0.54-3.27,0.42-4.53c-0.03-0.33-0.57-2-2.1-3.38c-0.89-0.8-1.23-2.47-1.15-2.81c0.86,0.79,0.67,1.37,1.4,1.69c0.3-0.68,0.1-3.2-0.79-4.3c-0.5-0.83-0.27-0.72,0.34-0.22c0.79,0.94,0.41,0.87,1.09,1.26c1.49-3.52,0.14-4.21,0.24-4.46c0.09-0.22,1.15,1.64,2.06,0.93c-1.47-0.78-1.43-1.96-1.6-3.23c-0.13-1.01-0.78-1.39-0.53-1.63c1.47,1.11,1.87-0.12,1.92-0.36c-0.28,0.16-1.59,0.33-1.75-1.7c-0.06-0.8-1.29-1.15-1.29-1.15c0.75-0.14,3.17-0.28,2.6-2.68c-0.29,0.56-1.01,1.46-2.52,1.11c0,0,0.96-0.26,0.79-1.3C48.96,41.37,47.08,38.71,44.65,39.06L44.65,39.06z M48.96,42.23c-1.54,0.3-2.69,1.98-4.43,1.26c-0.23-0.15-0.7-0.28-0.64-0.62c0.31,0.18,0.8,0.29,1.15,0.35c0,0-0.94-0.78-0.11-1.74c-1.06,0.66-1.42,0.48-1.42,0.13c0-0.16,1.38-1.17,2.68-0.67c0.94,0.36,1.75,1.07,2.78,1.22v0.07H48.96z M46.48,42.26c0,0.36-0.46,0.86-0.46,0.86l1.67-0.84c-0.33-0.22-1.27-0.75-1.67-0.86C46.02,41.41,46.48,41.77,46.48,42.26L46.48,42.26z M36.61,33.37c4.19,0.28,7.76,2.22,7.76,2.22V8.56c0,0-6.16-4.31-16.17-0.45c-2.94,1.13-10.11,0.18-10.11,0.18v27.62C24.38,36.34,32.56,33.1,36.61,33.37L36.61,33.37z M33.63,18.83c0.81,0.25,2,0.07,2.38,1.14c0.4,1.13-0.33,2.58-1.27,2.65c-0.79,0.06-1.5-0.2-1.94-0.16c-0.2,0.02-0.35,0.08-0.39,0.3c-0.03,0.24-0.34,0.34-0.4,0.03c-0.07-0.3-0.16-1.59-0.16-1.96c0-0.38,0.35-0.41,0.41,0c0.07,0.4,0.19,0.69,0.5,1.03c0.24,0.27,1.78,0.65,2.35,0.2c0.46-0.37,0.35-1.17-0.13-1.48c-0.47-0.32-2.38-0.76-2.71-1.3c-0.56-0.93,0.44-1.71,0.87-1.96c0.68-0.38,1.47-0.26,1.75-0.25c0.27,0,0.62,0.09,0.64-0.2s0.24-0.26,0.27,0.04c0.09,0.83,0.17,0.33,0.14,1.22c0,0.41-0.14,0.41-0.32,0.1c-0.11-0.21-1.29-1.19-2.24-0.58C32.58,18.16,32.89,18.63,33.63,18.83L33.63,18.83z M35.93,24.37c-0.35,0.33-0.63,0.64-0.93,0.98c-0.26-0.17-0.66-0.52-0.97-0.79c0.5-0.23,0.78-0.54,0.95-0.88C35.19,24.12,35.59,24.3,35.93,24.37L35.93,24.37z M30.8,26.45c0.43-0.31,1.15-1.65,1.25-1.96c0.09-0.31,0.27-0.21,0.24,0.13c-0.04,0.48-0.25,1.53-0.17,1.75c0.04,0.11,0.72,0.1,0.94,0.1c0.15,0,0.16,0.44,0.02,0.44c-0.18,0-0.94,0.11-0.94,0.11c-0.1,0.04-0.05,1.61,0.1,1.78c0.3,0.29,0.53,0.49,0.95,0.06c0.2-0.21,0.41-0.02,0.17,0.19c-0.13,0.12-0.7,0.81-0.82,1.16c-0.13,0.34-0.88,0.08-1.12-0.28c-0.38-0.57-0.22-1.72-0.25-2.84C31.23,27.1,30.44,26.72,30.8,26.45L30.8,26.45z M30.22,23.19c-0.27,0.24-0.88-0.14-1.1-0.51c-0.35-0.59-0.24-1.96-0.19-3.08c0.04,0-0.2-0.28-0.43-0.32c-0.29-0.07-0.35-0.18,0.11-0.37c0.56-0.22,1.43-1.57,1.55-1.87c0.11-0.3,0.28-0.02,0.11,0.27c-0.35,0.67-0.21,1.44-0.15,1.67c0.04,0.1,1.09-0.04,1.32-0.04c0.15,0.01,0.13,0.45-0.01,0.44c-0.18,0-1.57,0.17-1.57,0.17c-0.1,0.05,0.11,2.23,0.25,2.39c0.02,0.03,0.46,0.41,0.62,0.24c0.21-0.2,0.41,0.01,0.16,0.21C30.78,22.5,30.54,22.93,30.22,23.19L30.22,23.19z M25.26,26.52c0.51-0.4,0.79-0.71,1.14-1.03c0.31,0.48,0.44,0.94,0.71,1.14c0.36-0.31,0.97-0.69,1.25-1c0.27,0.13,0.73,0.41,0.77,1.36c0.02,0.95,0.15,2.44,0.15,2.77c0,0.18,0.05,0.12,0.32,0.06c0.26-0.07,0.36,0.06,0.17,0.23c-0.2,0.16-1.14,0.81-1.39,1.1c-0.33-0.62-0.39-1.06-0.26-1.67c0.11-0.5,0.02-1.86,0.02-2.16c0-0.3-0.46-0.41-0.66-0.58c-0.28,0.21-0.31,0.24-0.55,0.47c0,0.41-0.05,3.26,0.01,3.64c-0.64,0.03-0.58-0.01-0.95-0.01c-0.03-0.55-0.01-2.75-0.04-3.22C25.9,27.14,25.49,26.8,25.26,26.52L25.26,26.52z M20.97,28.08c0.27-1.86,2.07-2.61,2.62-2.98c0.1,0.54,0.72,1.48,1.12,1.85c-0.61,0.5-2.01,1.67-2.55,2.08c0.3,0.54,1.41,0.93,1.78,0.52c0.28-0.28,0.62-0.18,0.31,0.18c-0.4,0.47-0.82,1.13-1.02,1.55C22.41,30.93,20.73,29.86,20.97,28.08L20.97,28.08z M20.5,19.48c0.45-0.67,1.5-1.31,2.22-1.57c0.23,0.26,0.5,0.67,0.83,1.12c-0.34,0.26-0.68,0.6-0.88,0.84c-0.15-0.17-1.01-1.46-1.62-0.56c-0.33,0.48-0.68,1.88,0.44,2.75c0.54,0.41,1.12,0.55,1.86,0.43c-0.38,0.5-0.48,0.64-0.69,1.07c-1.08,0.19-1.52-0.15-2.05-0.6C19.5,22.05,19.85,20.48,20.5,19.48L20.5,19.48z M25.36,17.02c-0.19-0.28-0.23-0.52-0.62-0.41c-0.97,0.28-2.04,0.57-2.81,0.12c-0.82-0.5-1.53-0.67-1.55-2.54c-0.02-1.14,0.99-2.05,1.65-2.44c0.75-0.43,2.03-0.15,2.61,0.02c0.28,0.09,0.5,0.06,0.51-0.31c0-0.2,0.32-0.15,0.31,0c0,0.16-0.01,2.47-0.01,2.66c-0.01,0.18-0.38,0.2-0.37,0.03c0-0.26-0.09-0.76-0.18-1.17c-0.13-0.61-1.72-1.73-2.87-0.23c-0.03,0.07-0.49,0.86-0.43,1.48c0.04,0.46,0.11,1.1,0.42,1.52c0.9,1.28,2.18,0.85,2.86-0.19c0.24-0.38,0.2-0.84,0.22-1.11c0-0.16,0.36-0.18,0.36,0c0,0.19-0.02,1.73-0.02,1.87c0.01,0.23,0.17,0.4,0.26,0.51C25.93,17.17,25.68,17.44,25.36,17.02L25.36,17.02z M26.2,18.36c0.42-0.05,0.78,0.81,1.16,1.22c-0.11,0.12-0.11,2.66-0.11,2.9c0.09,0.15,0.39,0.32,0.51,0.2c0.21-0.2,0.34,0,0.16,0.17c-0.16,0.16-0.99,0.88-1.2,1.11c-0.29-0.22-0.39-0.54-0.43-0.99c-0.51,0.12-0.98,0.4-1.29,0.87c-0.57-0.26-1.01-0.75-1.03-1.31c-0.01-0.57,0.38-0.9,0.79-1.29c-0.07-0.06-0.14-0.1-0.22-0.18c-0.12-0.1-0.27-1.02-0.16-1.28C24.65,19.16,25.57,18.42,26.2,18.36L26.2,18.36z M30.81,12.15c-0.24,0.24-0.79,0.59-1.01,0.75c-0.28-0.17-0.63-0.67-0.81-0.81c-0.08,0.08-0.24,0.17-0.4,0.25c0,0.34,0.02,3.35-0.02,3.69c-0.43,0.02-0.79,0.05-1.09-0.01c-0.03-0.44,0.03-2.84,0.01-3.23c-0.04-0.48-0.46-0.51-1.02-0.67c0.32-0.38,0.91-0.81,1.17-1.02c0.48,0.38,0.77,0.38,1.01,0.65c0.31-0.17,0.86-0.5,1.1-0.7c0.22,0.26,0.65,0.7,0.81,0.9C30.79,11.72,31.06,11.9,30.81,12.15L30.81,12.15z M35.19,15.08c-0.27,0.14-0.82,0.71-1.26,0.71c-1.32-0.06-2.99-1.02-2.75-2.79c0.25-1.85,1.72-2.56,2.34-2.58c0.72,0.05,0.88,0.67,1.29,1.04c-0.61,0.5-1.61,1.49-2.2,2.09c0.15,0.31,0.83,1.48,2.29,1.12C35.55,14.51,35.77,14.79,35.19,15.08L35.19,15.08z M40.44,11.85c-0.14,0.17-0.69,0.62-1.31,1.11c0.1,0.02,0.19,0.04,0.29,0.09c1.01,0.59,1.35,1.42,0.36,2.21c-0.54,0.43-1.42,0.93-2.38,0.95c-0.63,0.02-1.76-0.51-1.96-0.74c0.51-0.48,1.07-1.01,1.46-1.35c-0.62-0.48-1.21-1.12-0.73-1.86c0.36-0.56,1.46-1.45,2.45-1.41C39.6,10.9,40.04,11.58,40.44,11.85L40.44,11.85z M41.06,16.93l0.59,0.62v0.64l-0.45,0.4h-0.37l-0.37-0.38l-0.01-0.74L41.06,16.93L41.06,16.93z M42.18,13.93c-1.39,0.05-1.03-0.58-0.8-0.57C42.56,13.43,42.4,13.92,42.18,13.93L42.18,13.93z M42.16,14.76c-1.39-0.14-1.03-0.58-0.79-0.56C42.67,14.27,42.38,14.79,42.16,14.76L42.16,14.76z M42.79,22.95l-0.51,0.55l-0.65,0.56c-0.37-0.38-0.63-0.48-0.69-0.78l-0.02-2.51l-0.6-0.36c-0.35,0.31-0.62,0.18-0.31-0.1l1.16-1.07l0.27-0.04l0.5,0.74l-0.02,2.66C42.21,22.88,42.21,22.84,42.79,22.95L42.79,22.95z M37.62,29.43c-0.01-0.6,0.3-1.07,0.72-1.5c-0.03-0.03-0.05-0.04-0.08-0.06c-0.12-0.1-0.31-1.15-0.16-1.37c0.2-0.29,1.13-1.18,1.75-1.24c0.43-0.04,1.06,0.88,1.43,1.29c-0.1,0.12,0.13,2.67,0.13,2.91c0.13,0.21,0.57,0.36,0.71,0.15c0.17-0.22,0.34,0.02,0.17,0.19c-0.17,0.16-0.81,0.67-1.01,0.91c-0.29-0.23-0.76-0.47-1.07-0.85c-0.64,0.12-1.29,0.58-1.81,0.95C37.83,30.56,37.64,30,37.62,29.43L37.62,29.43z M36.68,21.86c-0.39-1.07,0.31-2.08,0.66-2.37c0.27-0.23,0.91-0.77,1.32-1.03c0.4,0.24,0.71,0.42,0.91,0.51c-0.07,0.2-0.16,0.59-0.59,0.61c-0.64,0.02-1.14-0.15-1.49,0.22c-0.34,0.37-0.08,1.42,0.36,1.82c0.32,0.31,1.21,0.7,1.37,0.34c0.21-0.47,0.53-0.22,0.22,0.18c-0.21,0.27-0.58,0.84-0.79,1.22C37.99,23.31,37.07,22.96,36.68,21.86L36.68,21.86z M36.93,29.3l-0.5,0.56l-0.48,0.49c-0.37-0.38-0.64-0.45-0.7-0.75l-0.02-2.43l-0.76-0.4c-0.35,0.29-0.62,0.17-0.32-0.1l1.15-1.07l0.28-0.04l0.73,1.08l0.02,2.3C36.63,29.2,36.37,29.2,36.93,29.3L36.93,29.3z M38.74,28.24c-0.81,0.68,0.1,1.3,0.35,1.52c0.28-0.14,0.63-0.2,0.91-0.3c-0.04-0.11-0.09-0.21-0.09-0.34c0-0.12,0.02-0.39,0.04-0.68C39.41,28.49,39.17,28.53,38.74,28.24L38.74,28.24z M39.98,28.15c0.03-0.4,0.04-0.81,0.01-1.03c0.05-0.3-0.89-0.88-1.05-0.88c-0.2,0-0.2,0.11-0.42,0.47c-0.11,0.19-0.02,0.77,0.08,0.86C39.1,28.02,39.51,28.16,39.98,28.15L39.98,28.15z M38.38,12.99c0.27-0.22,0.52-0.42,0.61-0.49c-0.4-0.38-1.08-0.74-1.39-0.78c-0.3-0.03-0.91,0.23-0.68,0.55c0.23,0.3,0.47,0.68,0.97,0.75C38.06,13.04,38.22,13.02,38.38,12.99L38.38,12.99z M37.94,13.9c-0.45,0.35-0.85,0.67-1.07,0.86c0.16,0.31,1.21,1.06,1.79,0.79c0.57-0.26,0.85-0.84,0.32-1.14C38.61,14.2,38.27,14.05,37.94,13.9L37.94,13.9z M32.49,13.2c0.27-0.2,0.91-0.93,1.33-1.33c-0.24-0.14-0.66-0.43-0.82-0.84C32.26,11.61,32.12,12.01,32.49,13.2L32.49,13.2z M26.26,22.6c0-0.12-0.01-0.24,0-0.38c0-0.15,0-0.54,0-0.96c-0.48,0.29-0.67,0.52-1.16,0.23c-0.8,0.65,0.42,1.05,0.68,1.27C25.97,22.67,26.12,22.64,26.26,22.6L26.26,22.6z M26.25,20.95c-0.01-0.32-0.02-0.63-0.05-0.8c0.04-0.3-0.53-0.99-0.69-1c-0.18,0-0.57,0.35-0.79,0.69c-0.11,0.2-0.13,0.73,0.11,1.01C25.32,21.39,25.54,21.41,26.25,20.95L26.25,20.95z M22.71,26.14c-1.53,0.94-1.26,1.98-0.76,2.61c0.28-0.2,1.27-0.87,1.67-1.27C23.39,27.34,22.87,26.55,22.71,26.14L22.71,26.14z M13.41,29.8h3.41v-3.36h-3.41V29.8L13.41,29.8z M13.41,18.11h3.41v-3.35h-3.41V18.11L13.41,18.11z M9.39,24.91c-4,0-4,5.87,0,5.87C13.27,30.77,13.24,24.91,9.39,24.91L9.39,24.91z M9.39,13.19c-3.83,0-3.91,5.87,0,5.87C13.24,19.06,13.24,13.19,9.39,13.19L9.39,13.19z M43.82,47.48c-0.23-0.51-0.61-0.99-1.16-1.25c-2.29-1.09-6.67,1.27-6.62-2.16c0,0-1.57,1.16-0.85,2.38C36.81,49.24,41.36,45.78,43.82,47.48L43.82,47.48z M23.27,75.37c-1.28,1.27-1.72,1.31-1.65,1.86c0.29,0.78,0.85,1.33,1.45,1.99c0.75,0.62,1.03,1.17,0.48-0.62C23.21,77.4,23.29,76.53,23.27,75.37L23.27,75.37z M14.43,51.19l0.07,0.07c-0.01,2.64-7.42,6.41-10.59,8.11c4.9,1.69,9.54-2.86,8.98-1.75c-0.66,1.29-6.65,6.46-9.26,9.22c2.03,0.56,3.9-1.08,5.37-2.33c1.61-1.37,4.3-4.81,3.89-3.1c-4.35,5.37-7.77,16.52-5.67,17.23c1.21-2.52,6.21-15.41,6.53-15.36c0.33,0.07-0.39,3.4-0.5,5.61c-0.25,4.86-0.28,7.16,0.77,11.94c0.54-0.74,1.06-0.72,1.92-0.66c0.11-0.47,0.08-0.35-0.46-1.06c-1.39-1.84,0.21-4.35-0.46-5.88c-0.56-1.28-0.87-0.26-1.13-1.59c0.39-0.35,1.43-0.47,1.85-0.53c0.45-4.99,2.12-7.53,1.5-4.38c-0.32,1.59-0.8,4.24-0.57,4.31c0.23,0.08,0.25,0.08,0.45,0.18c0.09,0.05,8.38-13.58,3.79-4.14c-0.6,1.24-3.05,4.58-3.05,4.58c0.65,0.66,1.25,1.44,1.33,1.9c0.02,0.13,11.11-14.59,3.56-2.73c-0.46,0.72-2.73,3.16-3.31,3.86c-0.08,0.09,0.21,2.76,0.21,2.76c1.15-0.8,2.8-2.41,3.57-3.43c-0.1-1.5,0.25-1.31,0.33-2.78c0.35-0.23,0.81,0.4,1.37,0.9c0.26,0.23,7.61-12.56,3-2.96c-0.74,1.54-2.38,3.37-2.45,3.51c0.31,0.33,0.77,1.38,1.3,2.61c0.02,0.05,9.83-14.15,3.87-3.42c-0.47,0.85-3.42,4.4-3.38,4.49c0.73,1.77,1.36,3.5,1.36,3.5c-0.18-1.39-0.46-4.11,2.41-6.36c0.37,2.46,1.03,2.56,1.89,3.32c0.38,0.33,1.08,1.74,1.16,0.54c0.24-3.5-0.89-3.41-1.74-4.9c-0.2-0.35-0.16-1.16-0.01-1.11c7.06,0.21,6.83,6.83,8,6.83c-0.54-1.69-0.68-3.34-0.04-4.7c-1.89-1.34-1.42-3.64-1.06-4.63c-2.13-2.2-0.91-6.88,0.11-7.86c-1.37-1.99,0.32-3.35-0.04-4.57c-0.58-4.32-4.43-3.03-5.29-7.14c-0.6,0.73-1.71,3.22-1.19,4.05c0.6,0.95,1.88,1.03,1.96,1.73c0.03,0.3,0.13,1.12-0.08,1.3c-0.73,0.13-1.23-0.54-1.97-0.83c-1.5-0.59-5.12,1.89-5.33-0.3c-0.14-1.38,0.47-0.39,0.4-1.66c-0.06-1.32-0.72-0.39-0.73-2.09c-0.01-1.24,1.49-1.63,1.6-2.13c0.27-1.23,2.5,1.81,3.82-1.42c-0.76,0.11-2.31-0.43-2.17-1.18c0.39-2.02,0.42-6.92-4.15-5.86c-1.64,0.38-6.22,2.79-6.85,0.17c-1.65,2.92,1.61,2.41,2.6,2.35c-0.39,0.27-0.88,0.71-2.1,0.45c-2.58,1.7-11.99,7.68-14.71,9.18C8.74,54.73,14.35,51.19,14.43,51.19L14.43,51.19z M17.12,83.81c-0.88-0.37-1.85-0.62-2.67-1.18c0.58,1.95,1,3.64,2.08,5.69C17.15,89.49,18.22,86.68,17.12,83.81L17.12,83.81z"/></g></svg>